# xmcd
#
# Track frame offsets:
#	150
#	14701
#	33014
#	52364
#	65166
#	81011
#	99387
#	117520
#	131856
#	148384
#	169677
#	185075
#	201903
#
# Disc length: 2958 seconds
#
# Revision: 2
# Processed by: cddbd v1.5.2PL0 Copyright (c) Steve Scherf et al.
# Submitted via: audiograbber 1.83.01
#
DISCID=cd0b8c0d
DTITLE=Adam Brand - What A Life
DYEAR=2006
DGENRE=Country
TTITLE0=Kinda Like It
TTITLE1=Open Ended Heartache
TTITLE2=Life Will Bring You Home
TTITLE3=Party Till The Money's All Gone
TTITLE4=Can't Live Without Your Love
TTITLE5=That Changes Everything
TTITLE6=My Boots
TTITLE7=The Bug
TTITLE8=Cigarettes and Whiskey
TTITLE9=What A Life
TTITLE10=Settle Down
TTITLE11=Drive It Till The Wheels Fall Off
TTITLE12=The Lucky One
EXTD=
EXTT0=
EXTT1=
EXTT2=
EXTT3=
EXTT4=
EXTT5=
EXTT6=
EXTT7=
EXTT8=
EXTT9=
EXTT10=
EXTT11=
EXTT12=
PLAYORDER=
